<?xml version="1.0" encoding="UTF-8" standalone="no"?>
<!DOCTYPE svg PUBLIC "-//W3C//DTD SVG 1.1//EN"
 "http://www.w3.org/Graphics/SVG/1.1/DTD/svg11.dtd">
<!-- Generated by graphviz version 2.40.1 (20161225.0304)
 -->
<!-- Title: %3 Pages: 1 -->
<svg width="1553pt" height="1196pt"
 viewBox="0.00 0.00 1553.45 1196.00" xmlns="http://www.w3.org/2000/svg" xmlns:xlink="http://www.w3.org/1999/xlink">
<g id="graph0" class="graph" transform="scale(1 1) rotate(0) translate(4 1192)">
<title>%3</title>
<polygon fill="#ffffff" stroke="transparent" points="-4,4 -4,-1192 1549.4451,-1192 1549.4451,4 -4,4"/>
<!-- [root] module.bonjour.null_resource.complete -->
<g id="node1" class="node">
<title>[root] module.bonjour.null_resource.complete</title>
<polygon fill="none" stroke="#000000" points="538.9059,-252 300.3393,-252 300.3393,-216 538.9059,-216 538.9059,-252"/>
<text text-anchor="middle" x="419.6226" y="-229.8" font-family="Times,serif" font-size="14.00" fill="#000000">module.bonjour.null_resource.complete</text>
</g>
<!-- [root] module.bonjour.null_resource.string -->
<g id="node3" class="node">
<title>[root] module.bonjour.null_resource.string</title>
<polygon fill="none" stroke="#000000" points="529.4852,-180 309.76,-180 309.76,-144 529.4852,-144 529.4852,-180"/>
<text text-anchor="middle" x="419.6226" y="-157.8" font-family="Times,serif" font-size="14.00" fill="#000000">module.bonjour.null_resource.string</text>
</g>
<!-- [root] module.bonjour.null_resource.complete&#45;&gt;[root] module.bonjour.null_resource.string -->
<g id="edge2" class="edge">
<title>[root] module.bonjour.null_resource.complete&#45;&gt;[root] module.bonjour.null_resource.string</title>
<path fill="none" stroke="#000000" d="M419.6226,-215.8314C419.6226,-208.131 419.6226,-198.9743 419.6226,-190.4166"/>
<polygon fill="#000000" stroke="#000000" points="423.1227,-190.4132 419.6226,-180.4133 416.1227,-190.4133 423.1227,-190.4132"/>
</g>
<!-- [root] module.bonjour.null_resource.dependency -->
<g id="node2" class="node">
<title>[root] module.bonjour.null_resource.dependency</title>
<polygon fill="none" stroke="#000000" points="321.9509,-108 67.2942,-108 67.2942,-72 321.9509,-72 321.9509,-108"/>
<text text-anchor="middle" x="194.6226" y="-85.8" font-family="Times,serif" font-size="14.00" fill="#000000">module.bonjour.null_resource.dependency</text>
</g>
<!-- [root] module.bonjour.var.dependency -->
<g id="node5" class="node">
<title>[root] module.bonjour.var.dependency</title>
<polygon fill="none" stroke="#000000" points="189.3678,-36 -.1227,-36 -.1227,0 195.3678,0 195.3678,-30 189.3678,-36"/>
<polyline fill="none" stroke="#000000" points="189.3678,-36 189.3678,-30 "/>
<polyline fill="none" stroke="#000000" points="195.3678,-30 189.3678,-30 "/>
<text text-anchor="middle" x="97.6226" y="-13.8" font-family="Times,serif" font-size="14.00" fill="#000000">module.bonjour.var.dependency</text>
</g>
<!-- [root] module.bonjour.null_resource.dependency&#45;&gt;[root] module.bonjour.var.dependency -->
<g id="edge3" class="edge">
<title>[root] module.bonjour.null_resource.dependency&#45;&gt;[root] module.bonjour.var.dependency</title>
<path fill="none" stroke="#000000" d="M170.1454,-71.8314C158.0831,-62.8779 143.3686,-51.9558 130.354,-42.2955"/>
<polygon fill="#000000" stroke="#000000" points="132.2077,-39.3127 122.0919,-36.1628 128.0356,-44.9335 132.2077,-39.3127"/>
</g>
<!-- [root] provider.null -->
<g id="node22" class="node">
<title>[root] provider.null</title>
<polygon fill="none" stroke="#000000" points="291.6226,-36 213.002,-18 291.6226,0 370.2431,-18 291.6226,-36"/>
<text text-anchor="middle" x="291.6226" y="-13.8" font-family="Times,serif" font-size="14.00" fill="#000000">provider.null</text>
</g>
<!-- [root] module.bonjour.null_resource.dependency&#45;&gt;[root] provider.null -->
<g id="edge4" class="edge">
<title>[root] module.bonjour.null_resource.dependency&#45;&gt;[root] provider.null</title>
<path fill="none" stroke="#000000" d="M219.0998,-71.8314C232.9501,-61.5507 250.2973,-48.6744 264.5527,-38.0931"/>
<polygon fill="#000000" stroke="#000000" points="267.0266,-40.6157 272.9702,-31.845 262.8544,-34.9949 267.0266,-40.6157"/>
</g>
<!-- [root] module.bonjour.null_resource.string&#45;&gt;[root] module.bonjour.null_resource.dependency -->
<g id="edge5" class="edge">
<title>[root] module.bonjour.null_resource.string&#45;&gt;[root] module.bonjour.null_resource.dependency</title>
<path fill="none" stroke="#000000" d="M363.136,-143.9243C332.1097,-133.9959 293.4522,-121.6255 260.992,-111.2382"/>
<polygon fill="#000000" stroke="#000000" points="261.7234,-107.7975 251.1324,-108.0831 259.5899,-114.4645 261.7234,-107.7975"/>
</g>
<!-- [root] module.bonjour.var.string -->
<g id="node7" class="node">
<title>[root] module.bonjour.var.string</title>
<polygon fill="none" stroke="#000000" points="493.9021,-108 339.343,-108 339.343,-72 499.9021,-72 499.9021,-102 493.9021,-108"/>
<polyline fill="none" stroke="#000000" points="493.9021,-108 493.9021,-102 "/>
<polyline fill="none" stroke="#000000" points="499.9021,-102 493.9021,-102 "/>
<text text-anchor="middle" x="419.6226" y="-85.8" font-family="Times,serif" font-size="14.00" fill="#000000">module.bonjour.var.string</text>
</g>
<!-- [root] module.bonjour.null_resource.string&#45;&gt;[root] module.bonjour.var.string -->
<g id="edge7" class="edge">
<title>[root] module.bonjour.null_resource.string&#45;&gt;[root] module.bonjour.var.string</title>
<path fill="none" stroke="#000000" d="M419.6226,-143.8314C419.6226,-136.131 419.6226,-126.9743 419.6226,-118.4166"/>
<polygon fill="#000000" stroke="#000000" points="423.1227,-118.4132 419.6226,-108.4133 416.1227,-118.4133 423.1227,-118.4132"/>
</g>
<!-- [root] module.bonjour.provisioner.local&#45;exec -->
<g id="node24" class="node">
<title>[root] module.bonjour.provisioner.local&#45;exec</title>
<ellipse fill="none" stroke="#000000" cx="686.6226" cy="-90" rx="168.5251" ry="18"/>
<text text-anchor="middle" x="686.6226" y="-85.8" font-family="Times,serif" font-size="14.00" fill="#000000">[root] module.bonjour.provisioner.local&#45;exec</text>
</g>
<!-- [root] module.bonjour.null_resource.string&#45;&gt;[root] module.bonjour.provisioner.local&#45;exec -->
<g id="edge6" class="edge">
<title>[root] module.bonjour.null_resource.string&#45;&gt;[root] module.bonjour.provisioner.local&#45;exec</title>
<path fill="none" stroke="#000000" d="M486.6533,-143.9243C525.53,-133.4407 574.5035,-120.2344 614.2543,-109.515"/>
<polygon fill="#000000" stroke="#000000" points="615.4062,-112.8295 624.15,-106.8465 613.5836,-106.0709 615.4062,-112.8295"/>
</g>
<!-- [root] module.bonjour.output.complete -->
<g id="node4" class="node">
<title>[root] module.bonjour.output.complete</title>
<polygon fill="none" stroke="#000000" points="631.992,-324 439.2531,-324 439.2531,-288 637.992,-288 637.992,-318 631.992,-324"/>
<polyline fill="none" stroke="#000000" points="631.992,-324 631.992,-318 "/>
<polyline fill="none" stroke="#000000" points="637.992,-318 631.992,-318 "/>
<text text-anchor="middle" x="538.6226" y="-301.8" font-family="Times,serif" font-size="14.00" fill="#000000">module.bonjour.output.complete</text>
</g>
<!-- [root] module.bonjour.output.complete&#45;&gt;[root] module.bonjour.null_resource.complete -->
<g id="edge8" class="edge">
<title>[root] module.bonjour.output.complete&#45;&gt;[root] module.bonjour.null_resource.complete</title>
<path fill="none" stroke="#000000" d="M508.5938,-287.8314C493.373,-278.6221 474.7098,-267.3301 458.4143,-257.4706"/>
<polygon fill="#000000" stroke="#000000" points="460.0094,-254.345 449.6417,-252.1628 456.3857,-260.3341 460.0094,-254.345"/>
</g>
<!-- [root] module.bonjour.var.moduleName -->
<g id="node6" class="node">
<title>[root] module.bonjour.var.moduleName</title>
<polygon fill="none" stroke="#000000" points="754.4332,-252 556.8119,-252 556.8119,-216 760.4332,-216 760.4332,-246 754.4332,-252"/>
<polyline fill="none" stroke="#000000" points="754.4332,-252 754.4332,-246 "/>
<polyline fill="none" stroke="#000000" points="760.4332,-246 754.4332,-246 "/>
<text text-anchor="middle" x="658.6226" y="-229.8" font-family="Times,serif" font-size="14.00" fill="#000000">module.bonjour.var.moduleName</text>
</g>
<!-- [root] module.bonjour.output.complete&#45;&gt;[root] module.bonjour.var.moduleName -->
<g id="edge9" class="edge">
<title>[root] module.bonjour.output.complete&#45;&gt;[root] module.bonjour.var.moduleName</title>
<path fill="none" stroke="#000000" d="M568.9036,-287.8314C584.2524,-278.6221 603.0724,-267.3301 619.5049,-257.4706"/>
<polygon fill="#000000" stroke="#000000" points="621.577,-260.3091 628.3512,-252.1628 617.9755,-254.3066 621.577,-260.3091"/>
</g>
<!-- [root] module.france.null_resource.complete -->
<g id="node8" class="node">
<title>[root] module.france.null_resource.complete</title>
<polygon fill="none" stroke="#000000" points="1168.0855,-972 937.1597,-972 937.1597,-936 1168.0855,-936 1168.0855,-972"/>
<text text-anchor="middle" x="1052.6226" y="-949.8" font-family="Times,serif" font-size="14.00" fill="#000000">module.france.null_resource.complete</text>
</g>
<!-- [root] module.france.null_resource.string -->
<g id="node10" class="node">
<title>[root] module.france.null_resource.string</title>
<polygon fill="none" stroke="#000000" points="1229.165,-900 1018.0801,-900 1018.0801,-864 1229.165,-864 1229.165,-900"/>
<text text-anchor="middle" x="1123.6226" y="-877.8" font-family="Times,serif" font-size="14.00" fill="#000000">module.france.null_resource.string</text>
</g>
<!-- [root] module.france.null_resource.complete&#45;&gt;[root] module.france.null_resource.string -->
<g id="edge10" class="edge">
<title>[root] module.france.null_resource.complete&#45;&gt;[root] module.france.null_resource.string</title>
<path fill="none" stroke="#000000" d="M1070.5389,-935.8314C1078.9668,-927.2848 1089.1636,-916.9443 1098.3586,-907.6198"/>
<polygon fill="#000000" stroke="#000000" points="1100.9357,-909.9912 1105.465,-900.4133 1095.9514,-905.0761 1100.9357,-909.9912"/>
</g>
<!-- [root] module.france.null_resource.dependency -->
<g id="node9" class="node">
<title>[root] module.france.null_resource.dependency</title>
<polygon fill="none" stroke="#000000" points="1029.6309,-828 783.6143,-828 783.6143,-792 1029.6309,-792 1029.6309,-828"/>
<text text-anchor="middle" x="906.6226" y="-805.8" font-family="Times,serif" font-size="14.00" fill="#000000">module.france.null_resource.dependency</text>
</g>
<!-- [root] module.france.var.dependency -->
<g id="node12" class="node">
<title>[root] module.france.var.dependency</title>
<polygon fill="none" stroke="#000000" points="994.5478,-756 812.6973,-756 812.6973,-720 1000.5478,-720 1000.5478,-750 994.5478,-756"/>
<polyline fill="none" stroke="#000000" points="994.5478,-756 994.5478,-750 "/>
<polyline fill="none" stroke="#000000" points="1000.5478,-750 994.5478,-750 "/>
<text text-anchor="middle" x="906.6226" y="-733.8" font-family="Times,serif" font-size="14.00" fill="#000000">module.france.var.dependency</text>
</g>
<!-- [root] module.france.null_resource.dependency&#45;&gt;[root] module.france.var.dependency -->
<g id="edge11" class="edge">
<title>[root] module.france.null_resource.dependency&#45;&gt;[root] module.france.var.dependency</title>
<path fill="none" stroke="#000000" d="M906.6226,-791.8314C906.6226,-784.131 906.6226,-774.9743 906.6226,-766.4166"/>
<polygon fill="#000000" stroke="#000000" points="910.1227,-766.4132 906.6226,-756.4133 903.1227,-766.4133 910.1227,-766.4132"/>
</g>
<!-- [root] module.france.null_resource.string&#45;&gt;[root] module.france.null_resource.dependency -->
<g id="edge12" class="edge">
<title>[root] module.france.null_resource.string&#45;&gt;[root] module.france.null_resource.dependency</title>
<path fill="none" stroke="#000000" d="M1069.1444,-863.9243C1039.2213,-853.9959 1001.9383,-841.6255 970.6322,-831.2382"/>
<polygon fill="#000000" stroke="#000000" points="971.7166,-827.9104 961.1231,-828.0831 969.5121,-834.5543 971.7166,-827.9104"/>
</g>
<!-- [root] module.france.var.string -->
<g id="node14" class="node">
<title>[root] module.france.var.string</title>
<polygon fill="none" stroke="#000000" points="1194.0822,-828 1047.1629,-828 1047.1629,-792 1200.0822,-792 1200.0822,-822 1194.0822,-828"/>
<polyline fill="none" stroke="#000000" points="1194.0822,-828 1194.0822,-822 "/>
<polyline fill="none" stroke="#000000" points="1200.0822,-822 1194.0822,-822 "/>
<text text-anchor="middle" x="1123.6226" y="-805.8" font-family="Times,serif" font-size="14.00" fill="#000000">module.france.var.string</text>
</g>
<!-- [root] module.france.null_resource.string&#45;&gt;[root] module.france.var.string -->
<g id="edge14" class="edge">
<title>[root] module.france.null_resource.string&#45;&gt;[root] module.france.var.string</title>
<path fill="none" stroke="#000000" d="M1123.6226,-863.8314C1123.6226,-856.131 1123.6226,-846.9743 1123.6226,-838.4166"/>
<polygon fill="#000000" stroke="#000000" points="1127.1227,-838.4132 1123.6226,-828.4133 1120.1227,-838.4133 1127.1227,-838.4132"/>
</g>
<!-- [root] module.france.provisioner.local&#45;exec -->
<g id="node25" class="node">
<title>[root] module.france.provisioner.local&#45;exec</title>
<ellipse fill="none" stroke="#000000" cx="1381.6226" cy="-810" rx="163.6452" ry="18"/>
<text text-anchor="middle" x="1381.6226" y="-805.8" font-family="Times,serif" font-size="14.00" fill="#000000">[root] module.france.provisioner.local&#45;exec</text>
</g>
<!-- [root] module.france.null_resource.string&#45;&gt;[root] module.france.provisioner.local&#45;exec -->
<g id="edge13" class="edge">
<title>[root] module.france.null_resource.string&#45;&gt;[root] module.france.provisioner.local&#45;exec</title>
<path fill="none" stroke="#000000" d="M1188.3938,-863.9243C1225.8009,-853.4851 1272.8819,-840.3462 1311.2049,-829.6514"/>
<polygon fill="#000000" stroke="#000000" points="1312.5647,-832.9058 1321.2558,-826.8465 1310.683,-826.1634 1312.5647,-832.9058"/>
</g>
<!-- [root] module.france.output.complete -->
<g id="node11" class="node">
<title>[root] module.france.output.complete</title>
<polygon fill="none" stroke="#000000" points="919.6719,-1044 735.5732,-1044 735.5732,-1008 925.6719,-1008 925.6719,-1038 919.6719,-1044"/>
<polyline fill="none" stroke="#000000" points="919.6719,-1044 919.6719,-1038 "/>
<polyline fill="none" stroke="#000000" points="925.6719,-1038 919.6719,-1038 "/>
<text text-anchor="middle" x="830.6226" y="-1021.8" font-family="Times,serif" font-size="14.00" fill="#000000">module.france.output.complete</text>
</g>
<!-- [root] module.france.output.complete&#45;&gt;[root] module.france.null_resource.complete -->
<g id="edge15" class="edge">
<title>[root] module.france.output.complete&#45;&gt;[root] module.france.null_resource.complete</title>
<path fill="none" stroke="#000000" d="M886.356,-1007.9243C916.9686,-997.9959 955.1106,-985.6255 987.1381,-975.2382"/>
<polygon fill="#000000" stroke="#000000" points="988.4338,-978.4975 996.8662,-972.0831 986.2742,-971.839 988.4338,-978.4975"/>
</g>
<!-- [root] module.france.var.moduleName -->
<g id="node13" class="node">
<title>[root] module.france.var.moduleName</title>
<polygon fill="none" stroke="#000000" points="913.6128,-972 723.6323,-972 723.6323,-936 919.6128,-936 919.6128,-966 913.6128,-972"/>
<polyline fill="none" stroke="#000000" points="913.6128,-972 913.6128,-966 "/>
<polyline fill="none" stroke="#000000" points="919.6128,-966 913.6128,-966 "/>
<text text-anchor="middle" x="821.6226" y="-949.8" font-family="Times,serif" font-size="14.00" fill="#000000">module.france.var.moduleName</text>
</g>
<!-- [root] module.france.output.complete&#45;&gt;[root] module.france.var.moduleName -->
<g id="edge16" class="edge">
<title>[root] module.france.output.complete&#45;&gt;[root] module.france.var.moduleName</title>
<path fill="none" stroke="#000000" d="M828.3515,-1007.8314C827.3889,-1000.131 826.2444,-990.9743 825.1746,-982.4166"/>
<polygon fill="#000000" stroke="#000000" points="828.6376,-981.9019 823.9242,-972.4133 821.6917,-982.7702 828.6376,-981.9019"/>
</g>
<!-- [root] module.synograph.output.complete -->
<g id="node18" class="node">
<title>[root] module.synograph.output.complete</title>
<polygon fill="none" stroke="#000000" points="1007.5298,-684 799.7153,-684 799.7153,-648 1013.5298,-648 1013.5298,-678 1007.5298,-684"/>
<polyline fill="none" stroke="#000000" points="1007.5298,-684 1007.5298,-678 "/>
<polyline fill="none" stroke="#000000" points="1013.5298,-678 1007.5298,-678 "/>
<text text-anchor="middle" x="906.6226" y="-661.8" font-family="Times,serif" font-size="14.00" fill="#000000">module.synograph.output.complete</text>
</g>
<!-- [root] module.france.var.dependency&#45;&gt;[root] module.synograph.output.complete -->
<g id="edge17" class="edge">
<title>[root] module.france.var.dependency&#45;&gt;[root] module.synograph.output.complete</title>
<path fill="none" stroke="#000000" d="M906.6226,-719.8314C906.6226,-712.131 906.6226,-702.9743 906.6226,-694.4166"/>
<polygon fill="#000000" stroke="#000000" points="910.1227,-694.4132 906.6226,-684.4133 903.1227,-694.4133 910.1227,-694.4132"/>
</g>
<!-- [root] module.synograph.null_resource.complete -->
<g id="node15" class="node">
<title>[root] module.synograph.null_resource.complete</title>
<polygon fill="none" stroke="#000000" points="906.9441,-612 652.3011,-612 652.3011,-576 906.9441,-576 906.9441,-612"/>
<text text-anchor="middle" x="779.6226" y="-589.8" font-family="Times,serif" font-size="14.00" fill="#000000">module.synograph.null_resource.complete</text>
</g>
<!-- [root] module.synograph.null_resource.string -->
<g id="node17" class="node">
<title>[root] module.synograph.null_resource.string</title>
<polygon fill="none" stroke="#000000" points="897.023,-540 662.2221,-540 662.2221,-504 897.023,-504 897.023,-540"/>
<text text-anchor="middle" x="779.6226" y="-517.8" font-family="Times,serif" font-size="14.00" fill="#000000">module.synograph.null_resource.string</text>
</g>
<!-- [root] module.synograph.null_resource.complete&#45;&gt;[root] module.synograph.null_resource.string -->
<g id="edge18" class="edge">
<title>[root] module.synograph.null_resource.complete&#45;&gt;[root] module.synograph.null_resource.string</title>
<path fill="none" stroke="#000000" d="M779.6226,-575.8314C779.6226,-568.131 779.6226,-558.9743 779.6226,-550.4166"/>
<polygon fill="#000000" stroke="#000000" points="783.1227,-550.4132 779.6226,-540.4133 776.1227,-550.4133 783.1227,-550.4132"/>
</g>
<!-- [root] module.synograph.null_resource.dependency -->
<g id="node16" class="node">
<title>[root] module.synograph.null_resource.dependency</title>
<polygon fill="none" stroke="#000000" points="673.4888,-468 403.7563,-468 403.7563,-432 673.4888,-432 673.4888,-468"/>
<text text-anchor="middle" x="538.6226" y="-445.8" font-family="Times,serif" font-size="14.00" fill="#000000">module.synograph.null_resource.dependency</text>
</g>
<!-- [root] module.synograph.var.dependency -->
<g id="node19" class="node">
<title>[root] module.synograph.var.dependency</title>
<polygon fill="none" stroke="#000000" points="637.9059,-396 433.3392,-396 433.3392,-360 643.9059,-360 643.9059,-390 637.9059,-396"/>
<polyline fill="none" stroke="#000000" points="637.9059,-396 637.9059,-390 "/>
<polyline fill="none" stroke="#000000" points="643.9059,-390 637.9059,-390 "/>
<text text-anchor="middle" x="538.6226" y="-373.8" font-family="Times,serif" font-size="14.00" fill="#000000">module.synograph.var.dependency</text>
</g>
<!-- [root] module.synograph.null_resource.dependency&#45;&gt;[root] module.synograph.var.dependency -->
<g id="edge19" class="edge">
<title>[root] module.synograph.null_resource.dependency&#45;&gt;[root] module.synograph.var.dependency</title>
<path fill="none" stroke="#000000" d="M538.6226,-431.8314C538.6226,-424.131 538.6226,-414.9743 538.6226,-406.4166"/>
<polygon fill="#000000" stroke="#000000" points="542.1227,-406.4132 538.6226,-396.4133 535.1227,-406.4133 542.1227,-406.4132"/>
</g>
<!-- [root] module.synograph.null_resource.string&#45;&gt;[root] module.synograph.null_resource.dependency -->
<g id="edge20" class="edge">
<title>[root] module.synograph.null_resource.string&#45;&gt;[root] module.synograph.null_resource.dependency</title>
<path fill="none" stroke="#000000" d="M719.1192,-503.9243C685.6001,-493.9103 643.7656,-481.412 608.8139,-470.97"/>
<polygon fill="#000000" stroke="#000000" points="609.7343,-467.5922 599.1509,-468.0831 607.7305,-474.2993 609.7343,-467.5922"/>
</g>
<!-- [root] module.synograph.var.string -->
<g id="node21" class="node">
<title>[root] module.synograph.var.string</title>
<polygon fill="none" stroke="#000000" points="861.44,-468 691.8051,-468 691.8051,-432 867.44,-432 867.44,-462 861.44,-468"/>
<polyline fill="none" stroke="#000000" points="861.44,-468 861.44,-462 "/>
<polyline fill="none" stroke="#000000" points="867.44,-462 861.44,-462 "/>
<text text-anchor="middle" x="779.6226" y="-445.8" font-family="Times,serif" font-size="14.00" fill="#000000">module.synograph.var.string</text>
</g>
<!-- [root] module.synograph.null_resource.string&#45;&gt;[root] module.synograph.var.string -->
<g id="edge22" class="edge">
<title>[root] module.synograph.null_resource.string&#45;&gt;[root] module.synograph.var.string</title>
<path fill="none" stroke="#000000" d="M779.6226,-503.8314C779.6226,-496.131 779.6226,-486.9743 779.6226,-478.4166"/>
<polygon fill="#000000" stroke="#000000" points="783.1227,-478.4132 779.6226,-468.4133 776.1227,-478.4133 783.1227,-478.4132"/>
</g>
<!-- [root] module.synograph.provisioner.local&#45;exec -->
<g id="node26" class="node">
<title>[root] module.synograph.provisioner.local&#45;exec</title>
<ellipse fill="none" stroke="#000000" cx="1063.6226" cy="-450" rx="178.6549" ry="18"/>
<text text-anchor="middle" x="1063.6226" y="-445.8" font-family="Times,serif" font-size="14.00" fill="#000000">[root] module.synograph.provisioner.local&#45;exec</text>
</g>
<!-- [root] module.synograph.null_resource.string&#45;&gt;[root] module.synograph.provisioner.local&#45;exec -->
<g id="edge21" class="edge">
<title>[root] module.synograph.null_resource.string&#45;&gt;[root] module.synograph.provisioner.local&#45;exec</title>
<path fill="none" stroke="#000000" d="M850.9212,-503.9243C892.536,-493.3741 945.0274,-480.0664 987.4516,-469.3109"/>
<polygon fill="#000000" stroke="#000000" points="988.3392,-472.6967 997.1724,-466.8465 986.6189,-465.9114 988.3392,-472.6967"/>
</g>
<!-- [root] module.synograph.output.complete&#45;&gt;[root] module.synograph.null_resource.complete -->
<g id="edge23" class="edge">
<title>[root] module.synograph.output.complete&#45;&gt;[root] module.synograph.null_resource.complete</title>
<path fill="none" stroke="#000000" d="M874.5751,-647.8314C858.1806,-638.5368 838.044,-627.1208 820.5397,-617.1971"/>
<polygon fill="#000000" stroke="#000000" points="822.0852,-614.05 811.6598,-612.1628 818.6329,-620.1395 822.0852,-614.05"/>
</g>
<!-- [root] module.synograph.var.moduleName -->
<g id="node20" class="node">
<title>[root] module.synograph.var.moduleName</title>
<polygon fill="none" stroke="#000000" points="1138.4715,-612 924.7736,-612 924.7736,-576 1144.4715,-576 1144.4715,-606 1138.4715,-612"/>
<polyline fill="none" stroke="#000000" points="1138.4715,-612 1138.4715,-606 "/>
<polyline fill="none" stroke="#000000" points="1144.4715,-606 1138.4715,-606 "/>
<text text-anchor="middle" x="1034.6226" y="-589.8" font-family="Times,serif" font-size="14.00" fill="#000000">module.synograph.var.moduleName</text>
</g>
<!-- [root] module.synograph.output.complete&#45;&gt;[root] module.synograph.var.moduleName -->
<g id="edge24" class="edge">
<title>[root] module.synograph.output.complete&#45;&gt;[root] module.synograph.var.moduleName</title>
<path fill="none" stroke="#000000" d="M938.9224,-647.8314C955.4459,-638.5368 975.7411,-627.1208 993.3832,-617.1971"/>
<polygon fill="#000000" stroke="#000000" points="995.3333,-620.116 1002.3331,-612.1628 991.9014,-614.015 995.3333,-620.116"/>
</g>
<!-- [root] module.synograph.var.dependency&#45;&gt;[root] module.bonjour.output.complete -->
<g id="edge25" class="edge">
<title>[root] module.synograph.var.dependency&#45;&gt;[root] module.bonjour.output.complete</title>
<path fill="none" stroke="#000000" d="M538.6226,-359.8314C538.6226,-352.131 538.6226,-342.9743 538.6226,-334.4166"/>
<polygon fill="#000000" stroke="#000000" points="542.1227,-334.4132 538.6226,-324.4133 535.1227,-334.4133 542.1227,-334.4132"/>
</g>
<!-- [root] meta.count&#45;boundary (EachMode fixup) -->
<g id="node23" class="node">
<title>[root] meta.count&#45;boundary (EachMode fixup)</title>
<ellipse fill="none" stroke="#000000" cx="830.6226" cy="-1098" rx="174.7874" ry="18"/>
<text text-anchor="middle" x="830.6226" y="-1093.8" font-family="Times,serif" font-size="14.00" fill="#000000">[root] meta.count&#45;boundary (EachMode fixup)</text>
</g>
<!-- [root] meta.count&#45;boundary (EachMode fixup)&#45;&gt;[root] module.france.output.complete -->
<g id="edge1" class="edge">
<title>[root] meta.count&#45;boundary (EachMode fixup)&#45;&gt;[root] module.france.output.complete</title>
<path fill="none" stroke="#000000" d="M830.6226,-1079.8314C830.6226,-1072.131 830.6226,-1062.9743 830.6226,-1054.4166"/>
<polygon fill="#000000" stroke="#000000" points="834.1227,-1054.4132 830.6226,-1044.4133 827.1227,-1054.4133 834.1227,-1054.4132"/>
</g>
<!-- [root] provider.null (close) -->
<g id="node27" class="node">
<title>[root] provider.null (close)</title>
<ellipse fill="none" stroke="#000000" cx="1048.6226" cy="-1026" rx="104.3362" ry="18"/>
<text text-anchor="middle" x="1048.6226" y="-1021.8" font-family="Times,serif" font-size="14.00" fill="#000000">[root] provider.null (close)</text>
</g>
<!-- [root] provider.null (close)&#45;&gt;[root] module.france.null_resource.complete -->
<g id="edge26" class="edge">
<title>[root] provider.null (close)&#45;&gt;[root] module.france.null_resource.complete</title>
<path fill="none" stroke="#000000" d="M1049.6319,-1007.8314C1050.0597,-1000.131 1050.5684,-990.9743 1051.0439,-982.4166"/>
<polygon fill="#000000" stroke="#000000" points="1054.5394,-982.592 1051.5996,-972.4133 1047.5502,-982.2037 1054.5394,-982.592"/>
</g>
<!-- [root] provisioner.local&#45;exec (close) -->
<g id="node28" class="node">
<title>[root] provisioner.local&#45;exec (close)</title>
<ellipse fill="none" stroke="#000000" cx="1198.6226" cy="-1098" rx="137.1179" ry="18"/>
<text text-anchor="middle" x="1198.6226" y="-1093.8" font-family="Times,serif" font-size="14.00" fill="#000000">[root] provisioner.local&#45;exec (close)</text>
</g>
<!-- [root] provisioner.local&#45;exec (close)&#45;&gt;[root] module.france.null_resource.string -->
<g id="edge27" class="edge">
<title>[root] provisioner.local&#45;exec (close)&#45;&gt;[root] module.france.null_resource.string</title>
<path fill="none" stroke="#000000" d="M1199.7593,-1079.9249C1200.9581,-1048.8249 1200.0971,-983.9194 1176.6226,-936 1171.3484,-925.2337 1163.0987,-915.2807 1154.6653,-906.9295"/>
<polygon fill="#000000" stroke="#000000" points="1156.9723,-904.2949 1147.2771,-900.0226 1152.192,-909.4085 1156.9723,-904.2949"/>
</g>
<!-- [root] root -->
<g id="node29" class="node">
<title>[root] root</title>
<ellipse fill="none" stroke="#000000" cx="1033.6226" cy="-1170" rx="46.8976" ry="18"/>
<text text-anchor="middle" x="1033.6226" y="-1165.8" font-family="Times,serif" font-size="14.00" fill="#000000">[root] root</text>
</g>
<!-- [root] root&#45;&gt;[root] meta.count&#45;boundary (EachMode fixup) -->
<g id="edge28" class="edge">
<title>[root] root&#45;&gt;[root] meta.count&#45;boundary (EachMode fixup)</title>
<path fill="none" stroke="#000000" d="M999.1864,-1157.7862C969.2011,-1147.151 925.0817,-1131.5027 889.5009,-1118.883"/>
<polygon fill="#000000" stroke="#000000" points="890.3053,-1115.4547 879.7106,-1115.4105 887.9654,-1122.052 890.3053,-1115.4547"/>
</g>
<!-- [root] root&#45;&gt;[root] provider.null (close) -->
<g id="edge29" class="edge">
<title>[root] root&#45;&gt;[root] provider.null (close)</title>
<path fill="none" stroke="#000000" d="M1035.5223,-1151.7623C1038.0808,-1127.201 1042.6593,-1083.2474 1045.669,-1054.3541"/>
<polygon fill="#000000" stroke="#000000" points="1049.1832,-1054.3985 1046.7382,-1044.0896 1042.2209,-1053.6731 1049.1832,-1054.3985"/>
</g>
<!-- [root] root&#45;&gt;[root] provisioner.local&#45;exec (close) -->
<g id="edge30" class="edge">
<title>[root] root&#45;&gt;[root] provisioner.local&#45;exec (close)</title>
<path fill="none" stroke="#000000" d="M1064.6578,-1156.4574C1088.5407,-1146.0357 1122.0043,-1131.4334 1149.5109,-1119.4305"/>
<polygon fill="#000000" stroke="#000000" points="1151.2009,-1122.5119 1158.9665,-1115.3045 1148.4012,-1116.0961 1151.2009,-1122.5119"/>
</g>
</g>
</svg>
